Stone (2010) [BDRemux 1080p AVC.Mkv][Eng.TrueHD Esp.AC3]
 
http://stone.filmax.com/ 
http://www.imdb.com/title/tt1423995/ 
http://www.elseptimoarte.net/peliculas/stone-3307.html

============
::English::
===========
Title: Stone
Original title: Stone
Country: USA
USA release: 08/10/2010
Released in Spain: 22/10/2010
Genre: Thriller
Length: 105 min
Studio: Overture Films
Director: John Curran
Writer: Angus MacLachlan
Starring: Robert De Niro, Edward Norton, Milla Jovovich, Frances Conroy
Rating: Not recommended for children under 16 years

Synopsis:
A few days after retiring from his job as probation officer, Jack Mabry (Robert De Niro) is commissioned to review the case of Gerald "Stone" Creeson (Edward Norton), jailed for covering up the murder of his grandparents with a fire . Now there is the possibility of receiving a pardon in advance, Stone needs to convince Jack that he is rehabilitated. However, their attempts to influence the final decision of the veteran agent causing severe and unexpected effects for both.


=======
General ....
-----------
Full name: Stone.BDremux.Castellano.Andres1992.mkv
Format: Matroska
Duration: 1h 45mn
Total bit rate: 31.7 Mbps
Writing application: mkvmerge v4.4.0 ('Die Wiederkehr') held in October 31, 2010 21:52:48
Writing library: libebml libmatroska v1.0.0 + v1.0.0

Video
ID: 1
Format: AVC
Format / Info: Advanced Video Codec
Format profile: High@L4.1
Format settings, CABAC: Yes
Format settings, rethinking: 2 boxes
Muxing mode: Container profile = Unknown@4.1
Codec ID: V_MPEG4/ISO/AVC
Duration: 1h 45mn
Little change mode: variable
Width: 1 920 pixels
Height: 1 080 pixels
Show 16:9 aspect ratio
Frame rate: 23.976 fps
Color Space: YUV
subsampling Chroma: 4:2:0
Bit depth: 8 bits
Scan type: Progressive
Title: Stone
Language: English

Audio # 1
ID: 2
Format: AC-3
Format / Info: Audio Coding 3
extension as follows: CM (complete core)
Codec ID: A_AC3
Duration: 1h 45mn
Bit rate mode: Constant
Bitrate: 448 Kbps
Channel (s): 6 channels
Channel positions: Front: CLI, side: LR, LFE
Sampling frequency: 48.0 kHz
Bit depth: 16 bits
Video delay: 1s 633ms
Stream size: 336 MiB (1%)
Title: AC3 5.1 Castilian
Language: Spanish

Audio # 2
ID: 3
Format: AC-3
Format / Info: Audio Coding 3
extension as follows: CM (complete core)
Codec ID: A_AC3
Duration: 1h 45mn
Bit rate mode: Constant
Bitrate: 640 Kbps
Channel (s): 6 channels
Channel positions: Front: CLI, side: LR, LFE
Sampling frequency: 48.0 kHz
Bit depth: 16 bits
Stream size: 481 MiB (2%)
Title: English AC3 5.1
Language: English

Audio # 3
ID: 4
Format: TrueHD
Codec ID: A_TRUEHD
Codec ID / Info: Dolby TrueHD
Duration: 1h 45mn
Channel (s): 6 channels
Sampling frequency: 48.0 kHz
Title: TrueHD 5.1 English
Language: English

Text # 1
ID: 5
Format: UTF-8
Codec ID: S_TEXT/UTF8
Codec ID / Info: UTF-8 Plain Text
Title: Spanish Subs
Language: Spanish

Text # 2
ID: 6
Format: UTF-8
Codec ID: S_TEXT/UTF8
Codec ID / Info: UTF-8 Plain Text
Title: English Subs
Language: English

Menu
00:00:00.000: is: 01
00:09:38.745: is: 02
00:17:07.693: is: 03
00:25:05.921: is: 04
00:32:24.484: is: 05
00:41:07.090: is: 06
00:50:20.017: is: 07
00:58:36.805: is: 08
01:07:31.130: is: 09
01:19:07.993: is 10
01:27:08.723: is: 11
01:41:15.403: is: 12
===========================

===========
::Spanish::
===========
Título: Stone
Título original: Stone
País: USA
Estreno en USA: 08/10/2010
Estreno en España: 22/10/2010
Genero: Thriller
Duracion: 105 Min.
Productora: Overture Films
Director: John Curran
Guión: Angus MacLachlan
Reparto: Robert De Niro, Edward Norton, Milla Jovovich, Frances Conroy
Calificación: No recomendada para menores de 16 años

Sinopsis:
A pocos días de jubilarse de su puesto de oficial de libertad condicional, Jack Mabry (Robert De Niro) recibe el encargo de revisar el caso de Gerald "Stone" Creeson (Edward Norton), encarcelado por encubrir el asesinato de sus abuelos con un incendio. Ahora que cabe la posibilidad de recibir un indulto anticipado, Stone necesita convencer a Jack de que está rehabilitado. Sin embargo, sus intentos de influir en la decisión final del veterano agente provocan unos efectos intensos e inesperados para ambos.


=======
General....
-----------
Nombre completo: Stone.BDremux.Castellano.Andres1992.mkv
Formato: Matroska
Duración: 1h 45mn
Tasa de bits total: 31,7 Mbps
aplicación de la escritura: mkvmerge v4.4.0 ('Die Wiederkehr') realizado en 31 de octubre 2010 21:52:48
la colección de la escritura: libebml v1.0.0 + libmatroska v1.0.0

Video
ID: 1
Formato: AVC
Formato / Info: Advanced Video Codec
Formato del perfil: High@L4.1
Ajustes del formato, CABAC: Sí
Ajustes del formato, replanteamientos: 2 cuadros
Muxing modo: el perfil de contenedores = Unknown@4.1
ID Códec: V_MPEG4/ISO/AVC
Duración: 1h 45mn
Poco el modo de cambio: variable
Ancho: 1 920 píxeles
Altura: 1 080 píxeles
Mostrar la relación de aspecto 16:9
Velocidad de cuadros: 23.976 fps
Espacio de color: YUV
submuestreo Chroma: 4:2:0
La profundidad de bits: 8 bits
Tipo de exploración: Progresivo
Título: Piedra
Idioma: Inglés

Audio # 1
ID: 2
Formato: AC-3
Formato / Info: Audio Coding 3
extensión modo: CM (completo principal)
ID Códec: A_AC3
Duración: 1h 45mn
Poco el modo de tasa: Constante
Velocidad de bits: 448 Kbps
Canal (s): 6 canales
Canal posiciones: Frontal: C L I, laterales: L R, LFE
Frecuencia de muestreo: 48,0 KHz
La profundidad de bits: 16 bits
Retardo de Video: 1s 633ms
Stream size: 336 MiB (1%)
Título: AC3 5.1 Castellano
Idioma: Español

Audio # 2
ID: 3
Formato: AC-3
Formato / Info: Audio Coding 3
extensión modo: CM (completo principal)
ID Códec: A_AC3
Duración: 1h 45mn
Poco el modo de tasa: Constante
Velocidad de bits: 640 Kbps
Canal (s): 6 canales
Canal posiciones: Frontal: C L I, laterales: L R, LFE
Frecuencia de muestreo: 48,0 KHz
La profundidad de bits: 16 bits
Stream size: 481 MiB (2%)
Título: AC3 5.1 Ingles
Idioma: Inglés

Audio # 3
ID: 4
Formato: TrueHD
ID Códec: A_TRUEHD
ID Codec / Info: Dolby TrueHD
Duración: 1h 45mn
Canal (s): 6 canales
Frecuencia de muestreo: 48,0 KHz
Título: TrueHD 5.1 Inglés
Idioma: Inglés

Texto # 1
ID: 5
Formato: UTF-8
ID Códec: S_TEXT/UTF8
ID Codec / Info: UTF-8 Texto sin formato
Título: Español Subs
Idioma: Español

Texto # 2
ID: 6
Formato: UTF-8
ID Códec: S_TEXT/UTF8
ID Codec / Info: UTF-8 Texto sin formato
Título: Ingles Subs
Idioma: Inglés

Menú
00:00:00.000: es: 01
00:09:38.745: es: 02
00:17:07.693: es: 03
00:25:05.921: es: 04
00:32:24.484: es: 05
00:41:07.090: es: 06
00:50:20.017: es: 07
00:58:36.805: es: 08
01:07:31.130: es: 09
01:19:07.993: es: 10
01:27:08.723: es: 11
01:41:15.403: es: 12
===========================